<?xml version="1.0" standalone="no"?>
<!DOCTYPE svg PUBLIC "-//W3C//DTD SVG 20010904//EN"
 "http://www.w3.org/TR/2001/REC-SVG-20010904/DTD/svg10.dtd">
<svg version="1.0" xmlns="http://www.w3.org/2000/svg"
 width="200.000000pt" height="200.000000pt" viewBox="0 0 200.000000 200.000000"
 preserveAspectRatio="xMidYMid meet">
<metadata>
Created by potrace 1.11, written by Peter Selinger 2001-2013
</metadata>
<g transform="translate(0.000000,200.000000) scale(0.100000,-0.100000)"
fill="#000000" stroke="none">
<path d="M31 1563 c-9 -3 14 -21 60 -47 41 -22 95 -55 120 -73 47 -33 159
-147 159 -163 0 -5 -12 -11 -28 -14 -71 -16 -184 -135 -224 -236 -30 -78 -30
-212 0 -294 88 -238 361 -343 592 -226 77 39 136 102 179 190 35 73 36 79 36
185 -1 96 -4 117 -26 165 -35 75 -65 108 -201 221 -197 164 -310 230 -460 268
-85 22 -186 34 -207 24z m573 -372 c160 -44 260 -209 225 -373 -32 -148 -143
-248 -294 -262 -134 -12 -288 89 -330 215 -23 69 -17 198 12 254 73 141 232
209 387 166z"/>
<path d="M480 1043 c0 -4 14 -35 30 -68 17 -33 30 -69 30 -81 0 -36 -51 -67
-134 -79 -25 -4 -49 -11 -52 -16 -3 -5 5 -26 17 -45 40 -65 138 -91 216 -59
50 21 72 42 94 90 42 92 7 194 -82 240 -32 17 -119 30 -119 18z"/>
<path d="M1728 1444 c-263 -40 -571 -220 -648 -380 -34 -70 -35 -199 -2 -265
37 -74 87 -125 158 -160 56 -28 76 -32 143 -33 64 0 86 4 133 27 103 51 177
161 186 277 7 99 -16 159 -100 263 -28 34 -22 45 55 108 67 53 152 97 255 129
41 13 69 27 64 32 -14 14 -153 16 -244 2z m-223 -299 c50 -29 99 -95 115 -155
31 -116 -43 -255 -157 -294 -171 -58 -333 55 -334 233 -1 114 67 208 171 240
59 18 153 7 205 -24z"/>
<path d="M1315 1033 c-64 -55 -80 -106 -51 -162 43 -83 172 -87 213 -7 9 17
17 45 19 63 3 31 2 33 -24 27 -15 -4 -28 -10 -30 -14 -1 -4 -14 -5 -28 -2 -29
5 -60 47 -56 74 2 10 0 24 -5 32 -7 12 -13 10 -38 -11z"/>
<path d="M776 1309 c21 -28 139 -175 162 -201 38 -42 57 -41 103 5 49 49 94
106 88 112 -3 2 -34 -4 -70 -14 l-66 -18 -54 32 c-128 75 -173 98 -163 84z"/>
<path d="M1016 668 c-32 -29 -136 -170 -136 -183 1 -13 303 -194 314 -187 16
9 0 194 -22 242 -24 55 -75 121 -107 138 -21 10 -27 9 -49 -10z"/>
</g>
</svg>
